<svg height="448pt" viewBox="0 -44 448 448" width="448pt" xmlns="http://www.w3.org/2000/svg"><path d="m272 192c-4.417969 0-8-3.582031-8-8v-184h-264v200h88v16h-88v88h16.550781c4.007813-31.992188 31.207031-55.996094 63.449219-55.996094s59.441406 24.003906 63.449219 55.996094h161.101562c4.007813-31.992188 31.207031-55.996094 63.449219-55.996094s59.441406 24.003906 63.449219 55.996094h16.550781v-112zm-136 24h-32v-16h32zm96 0h-80v-16h80zm64 0h-16v-16h16zm0 0"/><path d="m384 312c0 8.835938-7.164062 16-16 16s-16-7.164062-16-16 7.164062-16 16-16 16 7.164062 16 16zm0 0"/><path d="m96 312c0 8.835938-7.164062 16-16 16s-16-7.164062-16-16 7.164062-16 16-16 16 7.164062 16 16zm0 0"/><path d="m368 264c-26.507812 0-48 21.492188-48 48s21.492188 48 48 48 48-21.492188 48-48c-.027344-26.5-21.5-47.972656-48-48zm0 80c-17.671875 0-32-14.328125-32-32s14.328125-32 32-32 32 14.328125 32 32-14.328125 32-32 32zm0 0"/><path d="m80 264c-26.507812 0-48 21.492188-48 48s21.492188 48 48 48 48-21.492188 48-48c-.027344-26.5-21.5-47.972656-48-48zm0 80c-17.671875 0-32-14.328125-32-32s14.328125-32 32-32 32 14.328125 32 32-14.328125 32-32 32zm0 0"/><path d="m371.167969 40h-91.167969v136h162.753906zm0 0"/></svg>