<svg enable-background="new 0 0 24 24" height="512" viewBox="0 0 24 24" width="512" xmlns="http://www.w3.org/2000/svg"><path d="m23.25 24h-3.5c-.414 0-.75-.336-.75-.75v-1.25h-14v1.25c0 .414-.336.75-.75.75h-3.5c-.414 0-.75-.336-.75-.75v-4.25c0-.414.336-.75.75-.75h22.5c.414 0 .75.336.75.75v4.25c0 .414-.336.75-.75.75z"/><path d="m11.435 8.565c0-.915.741-1.658 1.652-1.658h.913v-6.157c0-.414-.336-.75-.75-.75h-3.25v4.25c0 .414-.336.75-.75.75h-2.5c-.414 0-.75-.336-.75-.75v-4.25h-3.25c-.414 0-.75.336-.75.75v15.343c0 .414.336.75.75.75h8.822c-.087-.202-.137-.424-.137-.658z"/><path d="m21.348 7.907h-2.826v2.134c0 .36-.296.658-.652.658h-1.304c-.356 0-.652-.298-.652-.658v-2.134h-2.826c-.356 0-.652.298-.652.658v7.62c0 .36.296.658.652.658h8.261c.356 0 .652-.298.652-.658v-7.62c-.001-.36-.297-.658-.653-.658z"/></svg>